<?xml version="1.0" encoding="UTF-8"?>
<!DOCTYPE svg PUBLIC "-//W3C//DTD SVG 1.1//EN" "http://www.w3.org/Graphics/SVG/1.1/DTD/svg11.dtd">
<svg xmlns="http://www.w3.org/2000/svg" version="1.1" width="355px" height="50px" style="shape-rendering:geometricPrecision; text-rendering:geometricPrecision; image-rendering:optimizeQuality; fill-rule:evenodd; clip-rule:evenodd" xmlns:xlink="http://www.w3.org/1999/xlink">
<g><path style="opacity:1" fill="#fdfdfc" d="M 44.5,-0.5 C 147.833,-0.5 251.167,-0.5 354.5,-0.5C 354.5,16.1667 354.5,32.8333 354.5,49.5C 251.167,49.5 147.833,49.5 44.5,49.5C 44.5,48.1667 44.5,46.8333 44.5,45.5C 44.5,44.1667 44.5,42.8333 44.5,41.5C 44.5,39.8333 44.5,38.1667 44.5,36.5C 44.5,34.8333 44.5,33.1667 44.5,31.5C 44.5,28.5 44.5,25.5 44.5,22.5C 44.5,19.8333 44.5,17.1667 44.5,14.5C 44.5,13.8333 44.5,13.1667 44.5,12.5C 44.5,10.8333 44.5,9.16667 44.5,7.5C 44.5,6.5 44.5,5.5 44.5,4.5C 44.5,3.83333 44.5,3.16667 44.5,2.5C 44.5,1.5 44.5,0.5 44.5,-0.5 Z"/></g>
<g><path style="opacity:1" fill="#cd2d04" d="M -0.5,-0.5 C 14.5,-0.5 29.5,-0.5 44.5,-0.5C 44.5,0.5 44.5,1.5 44.5,2.5C 29.5,2.5 14.5,2.5 -0.5,2.5C -0.5,1.5 -0.5,0.5 -0.5,-0.5 Z"/></g>
<g><path style="opacity:1" fill="#7bab27" d="M -0.5,3.5 C -0.5,3.16667 -0.5,2.83333 -0.5,2.5C 14.5,2.5 29.5,2.5 44.5,2.5C 44.5,3.16667 44.5,3.83333 44.5,4.5C 29.5781,3.51696 14.5781,3.18362 -0.5,3.5 Z"/></g>
<g><path style="opacity:1" fill="#33ea23" d="M -0.5,3.5 C 14.5781,3.18362 29.5781,3.51696 44.5,4.5C 44.5,5.5 44.5,6.5 44.5,7.5C 42.283,8.36863 39.9496,8.70197 37.5,8.5C 37.5,7.5 37.5,6.5 37.5,5.5C 26.8333,5.5 16.1667,5.5 5.5,5.5C 5.5,6.5 5.5,7.5 5.5,8.5C 3.5,8.5 1.5,8.5 -0.5,8.5C -0.5,6.83333 -0.5,5.16667 -0.5,3.5 Z"/></g>
<g><path style="opacity:1" fill="#bdf2a7" d="M 37.5,8.5 C 37.5,10.1667 37.5,11.8333 37.5,13.5C 39.9496,13.702 42.283,13.3686 44.5,12.5C 44.5,13.1667 44.5,13.8333 44.5,14.5C 41.8333,14.5 39.1667,14.5 36.5,14.5C 36.5,13.1667 36.5,11.8333 36.5,10.5C 36.5,9.16667 36.5,7.83333 36.5,6.5C 26.5,6.5 16.5,6.5 6.5,6.5C 6.80155,9.0593 6.46822,11.3926 5.5,13.5C 5.5,11.8333 5.5,10.1667 5.5,8.5C 5.5,7.5 5.5,6.5 5.5,5.5C 16.1667,5.5 26.8333,5.5 37.5,5.5C 37.5,6.5 37.5,7.5 37.5,8.5 Z"/></g>
<g><path style="opacity:1" fill="#f9faf9" d="M 36.5,10.5 C 35.0331,9.7084 33.6998,9.7084 32.5,10.5C 34.1993,17.0425 35.5327,23.7092 36.5,30.5C 36.5,32.1667 36.5,33.8333 36.5,35.5C 26.1667,35.5 15.8333,35.5 5.5,35.5C 5.5,34.1667 5.5,32.8333 5.5,31.5C 5.5,28.5 5.5,25.5 5.5,22.5C 5.5,19.8333 5.5,17.1667 5.5,14.5C 5.5,14.1667 5.5,13.8333 5.5,13.5C 6.46822,11.3926 6.80155,9.0593 6.5,6.5C 16.5,6.5 26.5,6.5 36.5,6.5C 36.5,7.83333 36.5,9.16667 36.5,10.5 Z"/></g>
<g><path style="opacity:1" fill="#e2f836" d="M -0.5,8.5 C 1.5,8.5 3.5,8.5 5.5,8.5C 5.5,10.1667 5.5,11.8333 5.5,13.5C 5.5,13.8333 5.5,14.1667 5.5,14.5C 3.5,14.5 1.5,14.5 -0.5,14.5C -0.5,12.5 -0.5,10.5 -0.5,8.5 Z"/></g>
<g><path style="opacity:1" fill="#ebfb2e" d="M 44.5,7.5 C 44.5,9.16667 44.5,10.8333 44.5,12.5C 42.283,13.3686 39.9496,13.702 37.5,13.5C 37.5,11.8333 37.5,10.1667 37.5,8.5C 39.9496,8.70197 42.283,8.36863 44.5,7.5 Z"/></g>
<g><path style="opacity:1" fill="#8a8789" d="M 21.5,12.5 C 20.0716,10.6227 20.5716,9.2894 23,8.5C 23.5,8.83333 24,9.16667 24.5,9.5C 23.0065,10.1411 22.0065,11.1411 21.5,12.5 Z"/></g>
<g><path style="opacity:1" fill="#c8544f" d="M 58.5,9.5 C 59.5624,10.5754 59.5624,11.5754 58.5,12.5C 56.5914,11.6518 54.5914,11.3184 52.5,11.5C 52.1583,10.6618 51.4916,10.3284 50.5,10.5C 52.8814,8.36048 55.5481,8.02714 58.5,9.5 Z"/></g>
<g><path style="opacity:1" fill="#e3a7cf" d="M 100.5,23.5 C 100.572,20.8067 100.905,18.1401 101.5,15.5C 101.36,13.9704 100.693,12.9704 99.5,12.5C 99.2479,9.0682 100.581,8.0682 103.5,9.5C 102.726,13.7793 102.226,18.1126 102,22.5C 101.617,23.056 101.117,23.3893 100.5,23.5 Z"/></g>
<g><path style="opacity:1" fill="#dc9495" d="M 238.5,14.5 C 238.5,13.1667 237.833,12.5 236.5,12.5C 236.222,10.6536 236.889,9.32025 238.5,8.5C 239.793,10.6365 239.793,12.6365 238.5,14.5 Z"/></g>
<g><path style="opacity:1" fill="#c1b4bd" d="M 36.5,10.5 C 36.5,11.8333 36.5,13.1667 36.5,14.5C 36.1936,17.3854 36.5269,20.0521 37.5,22.5C 37.5,22.8333 37.5,23.1667 37.5,23.5C 37.5,25.8333 37.5,28.1667 37.5,30.5C 37.1667,30.5 36.8333,30.5 36.5,30.5C 35.5327,23.7092 34.1993,17.0425 32.5,10.5C 33.6998,9.7084 35.0331,9.7084 36.5,10.5 Z"/></g>
<g><path style="opacity:1" fill="#cacd5b" d="M 78.5,8.5 C 80.3904,8.2965 81.8904,8.96317 83,10.5C 83.4645,14.8477 83.9645,19.181 84.5,23.5C 83.5,23.5 82.5,23.5 81.5,23.5C 81.5,22.5 81.5,21.5 81.5,20.5C 78.2544,20.1351 75.5877,21.1351 73.5,23.5C 73.1667,22.8333 72.8333,22.1667 72.5,21.5C 74.1964,16.9697 76.1964,12.6364 78.5,8.5 Z"/></g>
<g><path style="opacity:1" fill="#81c551" d="M 63.5,22.5 C 62.612,19.9455 62.2786,17.2788 62.5,14.5C 64.0078,11.7498 66.3411,10.9164 69.5,12C 72.128,15.4651 72.128,18.9651 69.5,22.5C 67.4684,23.819 65.4684,23.819 63.5,22.5 Z"/></g>
<g><path style="opacity:1" fill="#e89d6b" d="M 224.5,12.5 C 234.153,11.6015 236.153,15.2681 230.5,23.5C 229.679,20.5535 229.679,17.5535 230.5,14.5C 229.325,14.281 228.325,14.6143 227.5,15.5C 226.499,18.1725 225.499,20.8392 224.5,23.5C 223.921,19.9043 223.921,16.2376 224.5,12.5 Z"/></g>
<g><path style="opacity:1" fill="#c4c958" d="M 254.5,17.5 C 254.795,19.7354 254.461,21.7354 253.5,23.5C 252.351,23.2089 251.684,22.3756 251.5,21C 251.956,18.8527 252.289,16.686 252.5,14.5C 252.598,12.3807 253.431,10.714 255,9.5C 255.175,12.1572 255.008,14.8239 254.5,17.5 Z"/></g>
<g><path style="opacity:1" fill="#b5b7b7" d="M 21.5,12.5 C 22.8249,13.9526 23.6582,13.6192 24,11.5C 25.3368,15.0257 25.8368,18.6924 25.5,22.5C 23.302,21.9329 20.9686,21.9329 18.5,22.5C 18.1667,18.5 17.8333,18.5 17.5,22.5C 14.9407,22.1984 12.6074,22.5318 10.5,23.5C 9.19438,20.3132 9.19438,16.9798 10.5,13.5C 11.1355,11.2054 12.4689,9.5387 14.5,8.5C 16.2828,9.34815 16.7828,10.6815 16,12.5C 14.0924,9.66768 13.259,10.001 13.5,13.5C 16.3854,13.8064 19.0521,13.4731 21.5,12.5 Z"/></g>
<g><path style="opacity:1" fill="#fbe2e1" d="M 58.5,9.5 C 59.7868,10.8714 60.4535,12.7047 60.5,15C 60.4944,17.0326 60.1611,18.866 59.5,20.5C 59.5,19.1667 59.5,17.8333 59.5,16.5C 57.712,16.2148 56.0453,16.5481 54.5,17.5C 57.0027,20.8561 56.0027,22.0228 51.5,21C 50.0103,17.6028 50.3436,14.4361 52.5,11.5C 54.5914,11.3184 56.5914,11.6518 58.5,12.5C 59.5624,11.5754 59.5624,10.5754 58.5,9.5 Z"/></g>
<g><path style="opacity:1" fill="#6ebdd3" d="M 91.5,14.5 C 92.4551,12.2901 93.9551,11.9568 96,13.5C 96.6942,17.0022 96.1942,20.3355 94.5,23.5C 93.6789,20.5535 93.6789,17.5535 94.5,14.5C 93.5,14.5 92.5,14.5 91.5,14.5 Z"/></g>
<g><path style="opacity:1" fill="#a6d571" d="M 248.5,12.5 C 244.162,12.6219 243.828,12.9553 247.5,13.5C 247.5,14.5 247.5,15.5 247.5,16.5C 245.738,16.6427 244.071,16.3094 242.5,15.5C 241.526,17.7427 241.192,20.076 241.5,22.5C 238.562,18.6078 239.229,15.1078 243.5,12C 245.387,11.2204 247.054,11.3871 248.5,12.5 Z"/></g>
<g><path style="opacity:1" fill="#e69d6e" d="M 298.5,8.5 C 303.627,7.95814 306.294,10.2915 306.5,15.5C 305.971,19.5847 303.805,22.2514 300,23.5C 298.289,23.5607 296.956,22.8941 296,21.5C 294.743,16.6169 295.576,12.2835 298.5,8.5 Z"/></g>
<g><path style="opacity:1" fill="#ced36d" d="M 166.5,22.5 C 166.993,20.1944 167.326,17.861 167.5,15.5C 168.468,13.3926 168.802,11.0593 168.5,8.5C 170.167,8.5 171.833,8.5 173.5,8.5C 173.46,11.4245 174.293,14.0912 176,16.5C 176.973,14.6079 177.64,12.6079 178,10.5C 179.342,9.09773 180.176,9.43107 180.5,11.5C 179.837,14.8058 179.337,18.1392 179,21.5C 178.275,23.158 177.108,23.658 175.5,23C 174.035,20.5704 172.702,18.0704 171.5,15.5C 170.205,18.0119 169.539,20.6786 169.5,23.5C 168.209,23.7373 167.209,23.404 166.5,22.5 Z"/></g>
<g><path style="opacity:1" fill="#d84ca8" d="M 195.5,9.5 C 197.606,9.67905 199.272,10.679 200.5,12.5C 199.68,14.1112 198.346,14.7778 196.5,14.5C 196.11,17.4658 196.777,20.1324 198.5,22.5C 196.994,23.7472 195.494,23.7472 194,22.5C 193.873,19.3959 193.707,16.3959 193.5,13.5C 194.18,12.1401 194.847,10.8068 195.5,9.5 Z"/></g>
<g><path style="opacity:1" fill="#c493e7" d="M 219.5,12.5 C 218.127,12.3433 216.793,12.51 215.5,13C 221.03,15.259 220.696,16.4257 214.5,16.5C 213.213,11.7335 214.88,10.4002 219.5,12.5 Z"/></g>
<g><path style="opacity:1" fill="#70c048" d="M 248.5,12.5 C 249.906,12.9731 250.573,13.9731 250.5,15.5C 250.5,16.5 250.5,17.5 250.5,18.5C 248.167,18.5 245.833,18.5 243.5,18.5C 243.5,19.5 243.5,20.5 243.5,21.5C 245.06,21.4809 246.56,21.1476 248,20.5C 249.608,20.9739 249.774,21.6406 248.5,22.5C 246.135,23.8217 243.802,23.8217 241.5,22.5C 241.192,20.076 241.526,17.7427 242.5,15.5C 244.071,16.3094 245.738,16.6427 247.5,16.5C 247.5,15.5 247.5,14.5 247.5,13.5C 243.828,12.9553 244.162,12.6219 248.5,12.5 Z"/></g>
<g><path style="opacity:1" fill="#cbea95" d="M 62.5,14.5 C 62.2786,17.2788 62.612,19.9455 63.5,22.5C 62.2521,21.6661 61.5854,20.3328 61.5,18.5C 61.5108,16.9549 61.8442,15.6216 62.5,14.5 Z"/></g>
<g><path style="opacity:1" fill="#e8fbe9" d="M 66.5,14.5 C 68.3079,15.9179 68.9746,17.9179 68.5,20.5C 64.0669,19.8685 63.4003,17.8685 66.5,14.5 Z"/></g>
<g><path style="opacity:1" fill="#76c0d3" d="M 257.5,23.5 C 256.475,23.1034 256.308,22.4368 257,21.5C 259.667,19.5 262.333,17.5 265,15.5C 265.49,14.2068 265.657,12.8734 265.5,11.5C 263.173,11.2471 261.173,11.9137 259.5,13.5C 258.438,12.5754 258.438,11.5754 259.5,10.5C 263.517,7.40218 266.517,8.23552 268.5,13C 267.193,16.974 264.526,19.6406 260.5,21C 262.9,21.1858 265.234,21.6858 267.5,22.5C 264.232,23.487 260.898,23.8204 257.5,23.5 Z"/></g>
<g><path style="opacity:1" fill="#54c1c3" d="M 277.5,23.5 C 275.064,23.683 272.897,23.0163 271,21.5C 270.013,17.5252 270.513,13.8585 272.5,10.5C 276.002,7.52355 279.002,8.02355 281.5,12C 281.167,12.5 280.833,13 280.5,13.5C 278.724,11.5532 276.724,11.2199 274.5,12.5C 281.012,14.8879 282.012,18.5546 277.5,23.5 Z"/></g>
<g><path style="opacity:1" fill="#8139ca" d="M 286.5,8.5 C 290.919,8.41911 293.252,10.5858 293.5,15C 293.103,21.4241 289.936,23.9241 284,22.5C 281.688,17.229 282.522,12.5623 286.5,8.5 Z"/></g>
<g><path style="opacity:1" fill="#f7e8fc" d="M 286.5,11.5 C 289.261,10.9147 290.927,11.9147 291.5,14.5C 291.56,18.7562 289.56,21.0896 285.5,21.5C 285.253,18.0613 285.586,14.728 286.5,11.5 Z"/></g>
<g><path style="opacity:1" fill="#60bdde" d="M 36.5,14.5 C 39.1667,14.5 41.8333,14.5 44.5,14.5C 44.5,17.1667 44.5,19.8333 44.5,22.5C 42.1667,22.5 39.8333,22.5 37.5,22.5C 36.5269,20.0521 36.1936,17.3854 36.5,14.5 Z"/></g>
<g><path style="opacity:1" fill="#73c2d7" d="M 91.5,14.5 C 90.1849,17.3529 89.1849,20.3529 88.5,23.5C 87.3987,19.7529 87.7321,16.0862 89.5,12.5C 90.1818,13.2427 90.8485,13.9094 91.5,14.5 Z"/></g>
<g><path style="opacity:1" fill="#fce6e0" d="M 142.5,12.5 C 142.56,11.9569 142.893,11.6236 143.5,11.5C 144.176,12.6016 144.842,13.6016 145.5,14.5C 144.491,17.5274 144.491,20.5274 145.5,23.5C 146.228,20.7875 147.061,18.1209 148,15.5C 149.011,14.6634 150.178,14.33 151.5,14.5C 150.932,17.5884 150.932,20.5884 151.5,23.5C 152.208,21.2549 153.208,19.2549 154.5,17.5C 154.875,20.3965 154.375,23.0632 153,25.5C 150.199,24.2054 147.366,24.2054 144.5,25.5C 143.194,24.0878 142.36,22.4211 142,20.5C 141.017,22.4484 139.85,24.2817 138.5,26C 138.833,26.3333 139.167,26.6667 139.5,27C 137.933,28.0758 136.266,28.9091 134.5,29.5C 133.287,29.2528 132.62,28.5862 132.5,27.5C 134.144,27.7135 135.644,27.3802 137,26.5C 138.816,22.7066 140.816,19.04 143,15.5C 143.74,14.2506 143.573,13.2506 142.5,12.5 Z"/></g>
<g><path style="opacity:1" fill="#4fbbe1" d="M -0.5,14.5 C 1.5,14.5 3.5,14.5 5.5,14.5C 5.5,17.1667 5.5,19.8333 5.5,22.5C 3.5,22.5 1.5,22.5 -0.5,22.5C -0.5,19.8333 -0.5,17.1667 -0.5,14.5 Z"/></g>
<g><path style="opacity:1" fill="#d756ac" d="M 99.5,12.5 C 100.693,12.9704 101.36,13.9704 101.5,15.5C 100.905,18.1401 100.572,20.8067 100.5,23.5C 99.5,23.5 98.5,23.5 97.5,23.5C 97.9843,19.768 98.651,16.1013 99.5,12.5 Z"/></g>
<g><path style="opacity:1" fill="#61c9cb" d="M 123.5,12.5 C 122.449,13.2223 121.782,14.2223 121.5,15.5C 119.837,17.4927 118.67,19.8261 118,22.5C 116.989,23.3366 115.822,23.67 114.5,23.5C 113.765,13.1876 112.098,13.1876 109.5,23.5C 108.167,23.5 106.833,23.5 105.5,23.5C 104.947,18.518 104.613,13.518 104.5,8.5C 105.675,8.28099 106.675,8.61432 107.5,9.5C 108.213,11.7759 108.713,14.1093 109,16.5C 112.097,7.19435 114.931,7.19435 117.5,16.5C 118.949,14.3894 119.949,12.0561 120.5,9.5C 121.325,8.61432 122.325,8.28099 123.5,8.5C 123.5,9.83333 123.5,11.1667 123.5,12.5 Z"/></g>
<g><path style="opacity:1" fill="#e7fbd7" d="M 165.5,14.5 C 166.167,14.8333 166.833,15.1667 167.5,15.5C 167.326,17.861 166.993,20.1944 166.5,22.5C 165.833,22.5 165.5,22.1667 165.5,21.5C 164.177,20.3922 162.677,20.3922 161,21.5C 159.72,21.3865 158.887,20.7199 158.5,19.5C 160.743,18.5258 163.076,18.1924 165.5,18.5C 165.5,17.1667 165.5,15.8333 165.5,14.5 Z"/></g>
<g><path style="opacity:1" fill="#63c8cb" d="M 202.5,8.5 C 203.5,8.5 204.5,8.5 205.5,8.5C 205.5,9.5 205.5,10.5 205.5,11.5C 207.144,11.2865 208.644,11.6198 210,12.5C 210.761,16.3374 210.261,20.0041 208.5,23.5C 207.833,20.5 207.167,17.5 206.5,14.5C 204.133,16.9502 203.133,19.9502 203.5,23.5C 202.5,23.5 201.5,23.5 200.5,23.5C 200.908,18.4632 201.574,13.4632 202.5,8.5 Z"/></g>
<g><path style="opacity:1" fill="#7f2fd1" d="M 219.5,12.5 C 220.117,12.6107 220.617,12.944 221,13.5C 221.498,16.8168 221.665,20.1501 221.5,23.5C 218.838,22.3607 216.171,22.1941 213.5,23C 211.98,20.4485 212.313,18.2818 214.5,16.5C 220.696,16.4257 221.03,15.259 215.5,13C 216.793,12.51 218.127,12.3433 219.5,12.5 Z"/></g>
<g><path style="opacity:1" fill="#d6423d" d="M 236.5,12.5 C 237.833,12.5 238.5,13.1667 238.5,14.5C 238.296,17.5176 237.963,20.5176 237.5,23.5C 236.5,23.5 235.5,23.5 234.5,23.5C 235.008,19.8026 235.674,16.1359 236.5,12.5 Z"/></g>
<g><path style="opacity:1" fill="#ecf8cf" d="M 254.5,17.5 C 255.008,14.8239 255.175,12.1572 255,9.5C 253.431,10.714 252.598,12.3807 252.5,14.5C 252.289,16.686 251.956,18.8527 251.5,21C 251.684,22.3756 252.351,23.2089 253.5,23.5C 250.462,23.0282 247.462,23.6949 244.5,25.5C 242.484,25.4841 241.484,24.4841 241.5,22.5C 243.802,23.8217 246.135,23.8217 248.5,22.5C 249.774,21.6406 249.608,20.9739 248,20.5C 246.56,21.1476 245.06,21.4809 243.5,21.5C 243.5,20.5 243.5,19.5 243.5,18.5C 245.833,18.5 248.167,18.5 250.5,18.5C 250.5,17.5 250.5,16.5 250.5,15.5C 251.165,13.6309 251.831,11.6309 252.5,9.5C 253.736,8.75415 255.07,8.42082 256.5,8.5C 256.785,11.8291 256.118,14.8291 254.5,17.5 Z"/></g>
<g><path style="opacity:1" fill="#e1fbfb" d="M 272.5,10.5 C 270.513,13.8585 270.013,17.5252 271,21.5C 272.897,23.0163 275.064,23.683 277.5,23.5C 277.209,24.6491 276.376,25.3158 275,25.5C 273.08,24.9116 271.413,23.9116 270,22.5C 268.13,23.7435 265.964,24.4101 263.5,24.5C 261.304,24.4954 259.304,24.162 257.5,23.5C 260.898,23.8204 264.232,23.487 267.5,22.5C 265.234,21.6858 262.9,21.1858 260.5,21C 264.526,19.6406 267.193,16.974 268.5,13C 266.517,8.23552 263.517,7.40218 259.5,10.5C 259.5,8.83333 259.5,7.16667 259.5,5.5C 264.205,6.35831 268.538,8.02497 272.5,10.5 Z"/></g>
<g><path style="opacity:1" fill="#eed6f8" d="M 123.5,12.5 C 123.833,12.5 124.167,12.5 124.5,12.5C 125.678,13.9986 127.345,14.9986 129.5,15.5C 127.535,16.2922 125.535,16.9588 123.5,17.5C 122.369,19.0745 122.202,20.7412 123,22.5C 125.889,22.8803 128.723,23.2137 131.5,23.5C 123.121,26.8959 119.788,24.2293 121.5,15.5C 121.782,14.2223 122.449,13.2223 123.5,12.5 Z"/></g>
<g><path style="opacity:1" fill="#cf4343" d="M 154.5,17.5 C 153.208,19.2549 152.208,21.2549 151.5,23.5C 150.932,20.5884 150.932,17.5884 151.5,14.5C 150.178,14.33 149.011,14.6634 148,15.5C 147.061,18.1209 146.228,20.7875 145.5,23.5C 144.491,20.5274 144.491,17.5274 145.5,14.5C 146.334,13.2521 147.667,12.5854 149.5,12.5C 153.51,11.8429 155.176,13.5095 154.5,17.5 Z"/></g>
<g><path style="opacity:1" fill="#f5d3fb" d="M 215.5,18.5 C 217.355,18.272 218.188,18.9387 218,20.5C 215.192,21.8596 214.359,21.1929 215.5,18.5 Z"/></g>
<g><path style="opacity:1" fill="#dcfcfc" d="M 274.5,16.5 C 275.5,16.5 276.5,16.5 277.5,16.5C 277.5,18.1667 277.5,19.8333 277.5,21.5C 273.716,21.4747 272.716,19.8081 274.5,16.5 Z"/></g>
<g><path style="opacity:1" fill="#fdf0d9" d="M 299.5,11.5 C 302.243,11.0772 303.576,12.2439 303.5,15C 303.441,17.9054 302.274,20.0721 300,21.5C 298.053,20.9561 297.22,19.6228 297.5,17.5C 297.611,15.2857 298.278,13.2857 299.5,11.5 Z"/></g>
<g><path style="opacity:1" fill="#873dcf" d="M 131.5,23.5 C 128.723,23.2137 125.889,22.8803 123,22.5C 122.202,20.7412 122.369,19.0745 123.5,17.5C 125.535,16.9588 127.535,16.2922 129.5,15.5C 127.345,14.9986 125.678,13.9986 124.5,12.5C 126.56,11.1888 128.726,11.1888 131,12.5C 131.499,16.1516 131.665,19.8183 131.5,23.5 Z"/></g>
<g><path style="opacity:1" fill="#f3d3fb" d="M 125.5,18.5 C 127.355,18.272 128.188,18.9387 128,20.5C 125.192,21.8596 124.359,21.1929 125.5,18.5 Z"/></g>
<g><path style="opacity:1" fill="#83c858" d="M 165.5,14.5 C 165.5,15.8333 165.5,17.1667 165.5,18.5C 163.076,18.1924 160.743,18.5258 158.5,19.5C 158.887,20.7199 159.72,21.3865 161,21.5C 162.677,20.3922 164.177,20.3922 165.5,21.5C 163.164,23.3907 160.498,23.8907 157.5,23C 154.851,19.1953 155.185,15.5286 158.5,12C 161.614,10.9126 163.947,11.746 165.5,14.5 Z"/></g>
<g><path style="opacity:1" fill="#ce3833" d="M 50.5,10.5 C 51.4916,10.3284 52.1583,10.6618 52.5,11.5C 50.3436,14.4361 50.0103,17.6028 51.5,21C 56.0027,22.0228 57.0027,20.8561 54.5,17.5C 56.0453,16.5481 57.712,16.2148 59.5,16.5C 59.5,17.8333 59.5,19.1667 59.5,20.5C 57.968,22.4562 55.8014,23.4562 53,23.5C 49.4321,22.8921 47.5988,20.7254 47.5,17C 47.8402,14.4887 48.8402,12.322 50.5,10.5 Z"/></g>
<g><path style="opacity:1" fill="#7cc8dc" d="M 185.5,11.5 C 187.722,11.178 189.556,11.8446 191,13.5C 191.477,16.9526 190.977,20.2859 189.5,23.5C 187.574,22.9394 185.574,22.7727 183.5,23C 181.342,21.6883 181.009,20.0217 182.5,18C 184.804,17.1048 187.138,16.2715 189.5,15.5C 187.833,14.8333 186.167,14.1667 184.5,13.5C 184.863,12.8165 185.196,12.1499 185.5,11.5 Z"/></g>
<g><path style="opacity:1" fill="#c2b2a4" d="M 11.5,23.5 C 12.1667,23.5 12.8333,23.5 13.5,23.5C 12.8333,36.8333 12.1667,36.8333 11.5,23.5 Z"/></g>
<g><path style="opacity:1" fill="#3d4241" d="M 25.5,22.5 C 24.4324,23.4345 23.099,23.7678 21.5,23.5C 21.1667,36.8333 20.8333,36.8333 20.5,23.5C 18.1667,23.5 15.8333,23.5 13.5,23.5C 12.8333,23.5 12.1667,23.5 11.5,23.5C 11.1667,23.5 10.8333,23.5 10.5,23.5C 12.6074,22.5318 14.9407,22.1984 17.5,22.5C 17.8333,18.5 18.1667,18.5 18.5,22.5C 20.9686,21.9329 23.302,21.9329 25.5,22.5 Z"/></g>
<g><path style="opacity:1" fill="#822e77" d="M 37.5,23.5 C 37.5,23.1667 37.5,22.8333 37.5,22.5C 39.8333,22.5 42.1667,22.5 44.5,22.5C 44.5,25.5 44.5,28.5 44.5,31.5C 41.9407,31.8016 39.6074,31.4682 37.5,30.5C 39.5,30.5 41.5,30.5 43.5,30.5C 43.5,28.1667 43.5,25.8333 43.5,23.5C 41.5,23.5 39.5,23.5 37.5,23.5 Z"/></g>
<g><path style="opacity:1" fill="#e59a68" d="M 142.5,12.5 C 143.573,13.2506 143.74,14.2506 143,15.5C 140.816,19.04 138.816,22.7066 137,26.5C 135.644,27.3802 134.144,27.7135 132.5,27.5C 133.105,25.9743 134.271,24.9743 136,24.5C 136.35,20.7438 135.85,17.0772 134.5,13.5C 135.325,12.6143 136.325,12.281 137.5,12.5C 137.201,14.604 137.534,16.604 138.5,18.5C 140.017,16.6035 141.35,14.6035 142.5,12.5 Z"/></g>
<g><path style="opacity:1" fill="#f00da5" d="M 37.5,23.5 C 39.5,23.5 41.5,23.5 43.5,23.5C 43.5,25.8333 43.5,28.1667 43.5,30.5C 41.5,30.5 39.5,30.5 37.5,30.5C 37.5,28.1667 37.5,25.8333 37.5,23.5 Z"/></g>
<g><path style="opacity:1" fill="#c31b92" d="M -0.5,22.5 C 1.5,22.5 3.5,22.5 5.5,22.5C 5.5,25.5 5.5,28.5 5.5,31.5C 3.5,31.5 1.5,31.5 -0.5,31.5C -0.5,28.5 -0.5,25.5 -0.5,22.5 Z"/></g>
<g><path style="opacity:1" fill="#61bdc8" d="M 36.5,30.5 C 36.8333,30.5 37.1667,30.5 37.5,30.5C 39.6074,31.4682 41.9407,31.8016 44.5,31.5C 44.5,33.1667 44.5,34.8333 44.5,36.5C 29.5,36.5 14.5,36.5 -0.5,36.5C -0.5,36.1667 -0.5,35.8333 -0.5,35.5C 1.5,35.5 3.5,35.5 5.5,35.5C 15.8333,35.5 26.1667,35.5 36.5,35.5C 36.5,33.8333 36.5,32.1667 36.5,30.5 Z"/></g>
<g><path style="opacity:1" fill="#26e1de" d="M -0.5,31.5 C 1.5,31.5 3.5,31.5 5.5,31.5C 5.5,32.8333 5.5,34.1667 5.5,35.5C 3.5,35.5 1.5,35.5 -0.5,35.5C -0.5,34.1667 -0.5,32.8333 -0.5,31.5 Z"/></g>
<g><path style="opacity:1" fill="#681d98" d="M -0.5,37.5 C -0.5,37.1667 -0.5,36.8333 -0.5,36.5C 14.5,36.5 29.5,36.5 44.5,36.5C 44.5,38.1667 44.5,39.8333 44.5,41.5C 29.5,41.5 14.5,41.5 -0.5,41.5C -0.5,41.1667 -0.5,40.8333 -0.5,40.5C 14.1667,40.5 28.8333,40.5 43.5,40.5C 43.5,39.5 43.5,38.5 43.5,37.5C 28.8333,37.5 14.1667,37.5 -0.5,37.5 Z"/></g>
<g><path style="opacity:1" fill="#7c04eb" d="M -0.5,37.5 C 14.1667,37.5 28.8333,37.5 43.5,37.5C 43.5,38.5 43.5,39.5 43.5,40.5C 28.8333,40.5 14.1667,40.5 -0.5,40.5C -0.5,39.5 -0.5,38.5 -0.5,37.5 Z"/></g>
<g><path style="opacity:1" fill="#fc8029" d="M -0.5,42.5 C 13.8488,42.1674 28.1821,42.5007 42.5,43.5C 28.3272,43.9626 13.9939,44.296 -0.5,44.5C -0.5,43.8333 -0.5,43.1667 -0.5,42.5 Z"/></g>
<g><path style="opacity:1" fill="#d67546" d="M -0.5,42.5 C -0.5,42.1667 -0.5,41.8333 -0.5,41.5C 14.5,41.5 29.5,41.5 44.5,41.5C 44.5,42.8333 44.5,44.1667 44.5,45.5C 29.5,45.5 14.5,45.5 -0.5,45.5C -0.5,45.1667 -0.5,44.8333 -0.5,44.5C 13.9939,44.296 28.3272,43.9626 42.5,43.5C 28.1821,42.5007 13.8488,42.1674 -0.5,42.5 Z"/></g>
<g><path style="opacity:1" fill="#140f12" d="M -0.5,45.5 C 14.5,45.5 29.5,45.5 44.5,45.5C 44.5,46.8333 44.5,48.1667 44.5,49.5C 29.5,49.5 14.5,49.5 -0.5,49.5C -0.5,48.1667 -0.5,46.8333 -0.5,45.5 Z"/></g>
<g><path style="opacity:1" fill="#567183" d="M 20.5,46.5 C 21.9778,46.238 23.3112,46.5713 24.5,47.5C 23.8333,47.8333 23.1667,48.1667 22.5,48.5C 21.2867,48.2528 20.62,47.5862 20.5,46.5 Z"/></g>
</svg>
